P3
4 4 
255 
180 45 60  225 90 15  180 30 15  135 75 105  
210 30 75  240 90 30  120 0 180  165 105 15  
195 30 75  135 240 60  120 0 165  15 165 15  
75 240 60  120 180 60  210 90 180  135 105 15  
